<?xml version="1.0" encoding="UTF-8" standalone="no"?>
<!-- Created with Inkscape (http://www.inkscape.org/) -->

<svg
   xmlns:dc="http://purl.org/dc/elements/1.1/"
   xmlns:cc="http://creativecommons.org/ns#"
   xmlns:rdf="http://www.w3.org/1999/02/22-rdf-syntax-ns#"
   xmlns:svg="http://www.w3.org/2000/svg"
   xmlns="http://www.w3.org/2000/svg"
   xmlns:sodipodi="http://sodipodi.sourceforge.net/DTD/sodipodi-0.dtd"
   xmlns:inkscape="http://www.inkscape.org/namespaces/inkscape"
   width="744.09448819"
   height="1052.3622047"
   id="svg4964"
   version="1.1"
   inkscape:version="0.48.0 r9654"
   sodipodi:docname="ambikon_logo.svg">
  <defs
     id="defs4966" />
  <sodipodi:namedview
     id="base"
     pagecolor="#ffffff"
     bordercolor="#666666"
     borderopacity="1.0"
     inkscape:pageopacity="0.0"
     inkscape:pageshadow="2"
     inkscape:zoom="2.8"
     inkscape:cx="359.27266"
     inkscape:cy="528.47503"
     inkscape:document-units="px"
     inkscape:current-layer="text4972"
     showgrid="false"
     inkscape:window-width="1139"
     inkscape:window-height="822"
     inkscape:window-x="309"
     inkscape:window-y="107"
     inkscape:window-maximized="0" />
  <metadata
     id="metadata4969">
    <rdf:RDF>
      <cc:Work
         rdf:about="">
        <dc:format>image/svg+xml</dc:format>
        <dc:type
           rdf:resource="http://purl.org/dc/dcmitype/StillImage" />
        <dc:title></dc:title>
      </cc:Work>
    </rdf:RDF>
  </metadata>
  <g
     inkscape:label="Layer 1"
     inkscape:groupmode="layer"
     id="layer1">
    <g
       style="font-size:105.87248993px;font-style:normal;font-variant:normal;font-weight:normal;font-stretch:normal;line-height:125%;letter-spacing:0px;word-spacing:0px;fill:#ff6600;fill-opacity:1;stroke:none;font-family:Saab;-inkscape-font-specification:Saab"
       id="text4972"
       transform="translate(-31.785714,-2.5)">
      <rect
         style="opacity:0.98999999;fill:none;stroke:#ff6600;stroke-width:5.80000019;stroke-miterlimit:4;stroke-opacity:0.98823529;stroke-dasharray:none"
         id="rect5599"
         width="122.54504"
         height="110.71428"
         x="339.08463"
         y="459.14789"
         rx="28.57143"
         ry="28.571428" />
      <path
         d="m 428.26328,522.49146 4.91108,31.12072 -6.56534,0 -4.34242,-24.3486 -14.78493,0 0,24.3486 -7.13399,0 -0.0517,-24.3486 -14.73324,0 -4.44581,24.3486 -6.56534,0 4.91108,-31.12072 48.8006,0"
         id="path4996"
         style="fill:#000000" />
      <g
         id="g5585"
         transform="translate(-1.7857143,6.4285714)">
        <path
           id="path5000"
           d="m 382.09915,480.46298 c 6.34128,-2.89488 12.23457,-4.34235 17.67988,-4.34243 1.86098,8e-5 3.65309,0.15516 5.37634,0.46526 6.92713,1.34416 11.68312,4.87669 14.26797,10.59759 1.20615,2.68823 1.80927,5.42809 1.80934,8.21959 -7e-5,1.96449 -0.29301,3.96338 -0.87882,5.99669 -1.48201,4.85942 -4.39419,8.28856 -8.73655,10.28741 -2.58484,1.20627 -5.08346,1.80938 -7.49585,1.80934 -1.65432,4e-5 -3.84276,-0.48245 -6.56534,-1.44747 -2.68822,-0.96494 -5.44531,-4.53193 -8.27129,-10.70098 -1.13734,-2.48133 -2.20572,-4.37683 -3.20512,-5.68651 -0.96502,-1.30956 -2.11956,-1.96437 -3.4636,-1.96443 -1.61983,6e-5 -3.77381,0.58594 -6.46195,1.75765 -5.61761,2.30912 -11.85553,8.44365 -18.71379,18.40361 l -6.20346,-3.51529 c 7.89217,-14.0956 18.17958,-24.0556 30.86224,-29.88003"
           inkscape:connector-curvature="0" />
        <path
           style="fill:#000000"
           inkscape:connector-curvature="0"
           id="path5560"
           d="m 397.90625,478.1875 c -18.95841,1.92715 -34.67297,15.34826 -43.90625,31.375 3.9609,4.18065 5.25755,-3.29818 8.15625,-5.1875 5.52474,-6.38109 13.56053,-13.84111 22.6875,-12.25 7.56525,4.42979 6.75557,17.91457 16.8125,19.03125 10.34826,2.39211 19.69998,-8.45238 17.34375,-18.5625 -1.29138,-10.24762 -11.502,-15.45899 -21.09375,-14.40625 z" />
      </g>
      <text
         xml:space="preserve"
         style="font-size:51.2274437px;font-style:normal;font-variant:normal;font-weight:normal;font-stretch:normal;line-height:125%;letter-spacing:0px;word-spacing:0px;fill:#ff6600;fill-opacity:1;stroke:none;font-family:Saab;-inkscape-font-specification:Saab"
         x="159.91699"
         y="639.59241"
         id="text5595"
         sodipodi:linespacing="125%"
         transform="matrix(-0.54152728,0.84068318,0.84068318,0.54152728,0,0)"><tspan
           sodipodi:role="line"
           id="tspan5597"
           x="159.91699"
           y="639.59241">S</tspan></text>
      <rect
         style="opacity:0.98999999;fill:#ff6600;fill-opacity:1;stroke:none"
         id="rect5601"
         width="6.4285712"
         height="16.071428"
         x="349.28574"
         y="524.71936"
         rx="28.571428"
         ry="16.071428" />
    </g>
  </g>
</svg>
