<?xml version="1.0" encoding="UTF-8" standalone="no"?>
<!-- Created with Inkscape (http://www.inkscape.org/) -->

<svg
   xmlns:dc="http://purl.org/dc/elements/1.1/"
   xmlns:cc="http://creativecommons.org/ns#"
   xmlns:rdf="http://www.w3.org/1999/02/22-rdf-syntax-ns#"
   xmlns:svg="http://www.w3.org/2000/svg"
   xmlns="http://www.w3.org/2000/svg"
   xmlns:sodipodi="http://sodipodi.sourceforge.net/DTD/sodipodi-0.dtd"
   xmlns:inkscape="http://www.inkscape.org/namespaces/inkscape"
   width="110.625"
   height="108.46875"
   id="svg4964"
   version="1.1"
   inkscape:version="0.48.0 r9654"
   sodipodi:docname="ambikon_logo.svg"
   inkscape:export-filename="/home/rob/cxgn/ambikon/doc/art/ambikon_logo.png"
   inkscape:export-xdpi="600"
   inkscape:export-ydpi="600">
  <defs
     id="defs4966" />
  <sodipodi:namedview
     id="base"
     pagecolor="#ffffff"
     bordercolor="#666666"
     borderopacity="1.0"
     inkscape:pageopacity="0.0"
     inkscape:pageshadow="2"
     inkscape:zoom="1.3169643"
     inkscape:cx="-132.38693"
     inkscape:cy="-52.921922"
     inkscape:document-units="px"
     inkscape:current-layer="layer1"
     showgrid="false"
     inkscape:window-width="835"
     inkscape:window-height="750"
     inkscape:window-x="45"
     inkscape:window-y="178"
     inkscape:window-maximized="0"
     fit-margin-top="0"
     fit-margin-left="0"
     fit-margin-right="0"
     fit-margin-bottom="0"
     showborder="false"
     inkscape:showpageshadow="false"
     inkscape:object-nodes="true" />
  <metadata
     id="metadata4969">
    <rdf:RDF>
      <cc:Work
         rdf:about="">
        <dc:format>image/svg+xml</dc:format>
        <dc:type
           rdf:resource="http://purl.org/dc/dcmitype/StillImage" />
        <dc:title></dc:title>
      </cc:Work>
    </rdf:RDF>
  </metadata>
  <g
     inkscape:label="Layer 1"
     inkscape:groupmode="layer"
     id="layer1"
     transform="translate(-296.875,-460.71875)">
    <rect
       inkscape:export-ydpi="600.25751"
       inkscape:export-xdpi="600.25751"
       inkscape:export-filename="/home/rob/cxgn/Ambikon/doc/art/ambikon_logo.png"
       ry="28.571428"
       rx="28.571428"
       y="463.62787"
       x="299.78198"
       height="102.66045"
       width="104.82662"
       id="rect5599"
       style="font-size:105.87248993px;font-style:normal;font-variant:normal;font-weight:normal;font-stretch:normal;line-height:125%;letter-spacing:0px;word-spacing:0px;opacity:0.98999999;fill:#ffffff;fill-opacity:1;stroke:#ff6600;stroke-width:5.80000019;stroke-miterlimit:4;stroke-opacity:0.98823529;stroke-dasharray:none;font-family:Saab;-inkscape-font-specification:Saab" />
    <path
       style="font-size:105.87248993px;font-style:normal;font-variant:normal;font-weight:normal;font-stretch:normal;line-height:125%;letter-spacing:0px;word-spacing:0px;fill:#000000;fill-opacity:1;stroke:none;font-family:Saab;-inkscape-font-specification:Saab"
       d="m 337.59848,527.5614 -5.3045,33.40705 c 0.18609,0.005 0.37711,0 0.56431,0 l 6.88456,0 4.68376,-25.81711 16.53423,0 0.0564,25.81711 8.01317,0 0,-25.81711 16.59066,0 3.83729,21.50015 c 2.5754,-1.84796 4.75037,-4.23223 6.37669,-6.96921 l -3.49871,-22.12088 z"
       id="path4996"
       inkscape:connector-curvature="0"
       sodipodi:nodetypes="ccsccccccccccc"
       inkscape:export-filename="/home/rob/cxgn/Ambikon/doc/art/ambikon_logo.png"
       inkscape:export-xdpi="600.25751"
       inkscape:export-ydpi="600.25751" />
    <g
       id="g4054"
       transform="matrix(1.0133323,0.06172051,-0.06172051,1.0133323,22.180325,-18.319439)" />
    <path
       style="font-size:200.31359863px;font-style:normal;font-variant:normal;font-weight:normal;font-stretch:normal;line-height:125%;letter-spacing:0px;word-spacing:0px;fill:#000000;fill-opacity:1;stroke:none;font-family:Saab;-inkscape-font-specification:Saab"
       d="m 81.495886,496.68719 c 1.23893,-1.82576 2.34743,-3.39071 3.32551,-4.69485 0.97811,-1.36931 2.0214,-2.54302 3.1299,-3.52114 1.04331,-0.97807 2.24962,-1.79314 3.61895,-2.44523 1.36933,-0.65204 3.06469,-1.17369 5.08609,-1.56495 0.13041,3.9124 0.97809,6.87928 2.54304,8.90065 1.630154,1.95621 4.662244,2.9343 9.096274,2.93428 3.39071,2e-5 6.09677,-0.91287 8.11818,-2.73866 2.02137,-1.82575 3.03207,-4.30359 3.03209,-7.43351 -2e-5,-2.21699 -0.35866,-4.04276 -1.0759,-5.47733 -0.71729,-1.4345 -1.63018,-2.60821 -2.73866,-3.52114 -1.04332,-0.97805 -2.21704,-1.69532 -3.52114,-2.1518 -1.30414,-0.45641 -2.57566,-0.78244 -3.81457,-0.9781 -1.17372,-0.19557 -2.21702,-0.29338 -3.1299,-0.29342 -0.91289,4e-5 -1.53235,4e-5 -1.85837,0 -2.54305,4e-5 -5.086104,0.45648 -7.629144,1.36933 -2.54304,0.91292 -4.98827,2.18444 -7.3357,3.81456 -2.41262,1.56499 -4.72744,3.48857 -6.94446,5.77076 -2.217,2.21704 -4.271,4.66227 -6.16199,7.3357 l 6.2598,4.69485 0,0"
       id="path3885"
       inkscape:connector-curvature="0" />
    <path
       style="font-size:200.31359863px;font-style:normal;font-variant:normal;font-weight:normal;font-stretch:normal;line-height:125%;letter-spacing:0px;word-spacing:0px;fill:#000000;fill-opacity:1;stroke:none;font-family:Saab;-inkscape-font-specification:Saab"
       d="m 147.73759,477.41874 c -1.3694,4e-5 -2.67352,0.26086 -3.91238,0.78248 -1.17377,0.52168 -2.21707,1.23895 -3.1299,2.1518 -0.84774,0.84772 -1.5324,1.89102 -2.05399,3.1299 -0.52171,1.17375 -0.78253,2.44527 -0.78248,3.81457 -5e-5,1.36936 0.26077,2.67348 0.78248,3.91237 0.52159,1.17374 1.20625,2.21704 2.05399,3.1299 0.91283,0.8477 1.95613,1.53237 3.1299,2.054 1.23886,0.52167 2.54298,0.78249 3.91238,0.78248 1.36926,10e-6 2.64078,-0.26081 3.81456,-0.78248 1.23885,-0.52163 2.28215,-1.2063 3.1299,-2.054 0.91282,-0.91286 1.63009,-1.95616 2.15181,-3.1299 0.52157,-1.23889 0.7824,-2.54301 0.78248,-3.91237 -8e-5,-1.3693 -0.26091,-2.64082 -0.78248,-3.81457 -0.52172,-1.23888 -1.23899,-2.28218 -2.15181,-3.1299 -0.84775,-0.91285 -1.89105,-1.63012 -3.1299,-2.1518 -1.17378,-0.52162 -2.4453,-0.78244 -3.81456,-0.78248"
       id="path3881"
       inkscape:connector-curvature="0" />
    <text
       xml:space="preserve"
       style="font-size:40px;font-style:normal;font-variant:normal;font-weight:normal;font-stretch:normal;line-height:125%;letter-spacing:0px;word-spacing:0px;fill:#000000;fill-opacity:1;stroke:none;font-family:Saab;-inkscape-font-specification:Saab"
       x="190.61873"
       y="452.98999"
       id="text4069"
       sodipodi:linespacing="125%"><tspan
         sodipodi:role="line"
         id="tspan4071"
         x="190.61873"
         y="452.98999">⚗</tspan></text>
    <g
       id="g4191"
       style="fill:#000000"
       transform="translate(-79.728813,11.769491)">
      <path
         sodipodi:type="arc"
         style="fill:#000000;fill-opacity:1;stroke:none"
         id="path4169"
         sodipodi:cx="370.94583"
         sodipodi:cy="496.31259"
         sodipodi:rx="7.1813283"
         sodipodi:ry="7.1813283"
         d="m 378.12716,496.31259 c 0,3.96614 -3.21519,7.18133 -7.18133,7.18133 -3.96614,0 -7.18133,-3.21519 -7.18133,-7.18133 0,-3.96614 3.21519,-7.18133 7.18133,-7.18133 3.96614,0 7.18133,3.21519 7.18133,7.18133 z"
         transform="matrix(0.68346405,0,0,0.68346405,106.69758,270.25857)" />
      <path
         transform="matrix(0.68346405,0,0,0.68346405,125.75829,265.02359)"
         d="m 378.12716,496.31259 c 0,3.96614 -3.21519,7.18133 -7.18133,7.18133 -3.96614,0 -7.18133,-3.21519 -7.18133,-7.18133 0,-3.96614 3.21519,-7.18133 7.18133,-7.18133 3.96614,0 7.18133,3.21519 7.18133,7.18133 z"
         sodipodi:ry="7.1813283"
         sodipodi:rx="7.1813283"
         sodipodi:cy="496.31259"
         sodipodi:cx="370.94583"
         id="path4179"
         style="fill:#000000;fill-opacity:1;stroke:none"
         sodipodi:type="arc" />
      <path
         inkscape:connector-curvature="0"
         id="path4181"
         d="m 360.67797,610.43675 17.83519,-4.77892"
         style="fill:#000000;stroke:#ffffff;stroke-width:1px;stroke-linecap:butt;stroke-linejoin:miter;stroke-opacity:1" />
      <path
         transform="matrix(-0.68346405,0,0,-0.68346405,620.37242,936.83775)"
         d="m 378.12716,496.31259 c 0,3.96614 -3.21519,7.18133 -7.18133,7.18133 -3.96614,0 -7.18133,-3.21519 -7.18133,-7.18133 0,-3.96614 3.21519,-7.18133 7.18133,-7.18133 3.96614,0 7.18133,3.21519 7.18133,7.18133 z"
         sodipodi:ry="7.1813283"
         sodipodi:rx="7.1813283"
         sodipodi:cy="496.31259"
         sodipodi:cx="370.94583"
         id="path4185"
         style="fill:#000000;fill-opacity:1;stroke:none"
         sodipodi:type="arc" />
      <path
         inkscape:connector-curvature="0"
         id="path4187"
         d="m 381.0782,603.97061 -16.07532,-9.08384"
         style="fill:#000000;stroke:#ffffff;stroke-width:1px;stroke-linecap:butt;stroke-linejoin:miter;stroke-opacity:1" />
      <path
         style="fill:#000000;stroke:#ffffff;stroke-width:1px;stroke-linecap:butt;stroke-linejoin:miter;stroke-opacity:1"
         d="m 368.57743,593.33137 -10.43648,15.23194"
         id="path4189"
         inkscape:connector-curvature="0" />
    </g>
    <path
       style="font-size:105.87248993px;font-style:normal;font-variant:normal;font-weight:normal;font-stretch:normal;line-height:125%;letter-spacing:0px;word-spacing:0px;fill:#ff6600;fill-opacity:1;stroke:none;font-family:Saab;-inkscape-font-specification:Saab"
       d="m 359.16759,474.45029 c -6.46142,0.0272 -13.48323,1.501 -21.03125,4.40625 -15.71211,6.08838 -29.05445,16.88996 -40.0625,32.375 l 0,6.75 4.75,3.0625 c 9.88008,-12.62951 18.62874,-20.24041 26.25,-22.84375 3.65231,-1.3341 6.54359,-1.91176 8.6875,-1.78125 1.77888,0.10842 3.26583,1.06396 4.4375,2.875 1.21716,1.81398 2.47596,4.40543 3.78125,7.78125 3.24297,8.39279 6.58232,13.31866 10.0625,14.8125 3.52565,1.49672 6.4042,2.33544 8.59375,2.46875 3.19288,0.19453 6.54413,-0.42433 10.0625,-1.8125 5.90841,-2.2955 10.05301,-6.59409 12.40625,-12.90625 0.93926,-2.64394 1.46653,-5.27493 1.625,-7.875 0.22494,-3.69467 -0.33908,-7.34479 -1.71875,-11 -2.95996,-7.7802 -8.97129,-12.85003 -18.03125,-15.1875 -2.2558,-0.54935 -4.63068,-0.91237 -7.09375,-1.0625 -0.90088,-0.0549 -1.79569,-0.0664 -2.71875,-0.0625 z"
       id="path5000"
       inkscape:connector-curvature="0"
       inkscape:export-filename="/home/rob/cxgn/Ambikon/doc/art/ambikon_logo.png"
       inkscape:export-xdpi="600.25751"
       inkscape:export-ydpi="600.25751" />
    <path
       inkscape:connector-curvature="0"
       id="path5560"
       d="m 361.63386,477.11966 c -0.79814,-0.0257 -1.56889,-0.0169 -2.36763,0.0218 -23.88596,0.96719 -44.74226,15.79391 -58.36626,34.72091 l -2.74469,3.48605 3.92339,3.06192 3.63992,-4.55241 4.03483,-4.90198 0.0853,-0.0363 c 7.82661,-8.00023 19.06367,-17.22605 31.01529,-14.38439 9.65579,6.47286 7.49708,24.25521 20.71778,26.54392 13.50348,4.00026 26.75505,-9.59894 24.45152,-23.17001 -0.82789,-12.81308 -12.41728,-20.40222 -24.38939,-20.78954 z"
       style="font-size:105.87248993px;font-style:normal;font-variant:normal;font-weight:normal;font-stretch:normal;line-height:125%;letter-spacing:0px;word-spacing:0px;fill:#000000;fill-opacity:1;stroke:none;font-family:Saab;-inkscape-font-specification:Saab"
       sodipodi:nodetypes="ccccccccccccc"
       inkscape:export-filename="/home/rob/cxgn/Ambikon/doc/art/ambikon_logo.png"
       inkscape:export-xdpi="600.25751"
       inkscape:export-ydpi="600.25751" />
    <path
       sodipodi:type="arc"
       style="fill:#ffffff;fill-opacity:1;stroke:none"
       id="path4199"
       sodipodi:cx="369.97968"
       sodipodi:cy="492.17236"
       sodipodi:rx="11.2"
       sodipodi:ry="5.5050845"
       d="m 381.17968,492.17236 a 11.2,5.5050845 0 1 1 -22.4,0 11.2,5.5050845 0 1 1 22.4,0 z"
       transform="matrix(0.04695322,0.24944302,-2.0187577,-0.03412027,1337.3365,407.28703)"
       inkscape:export-filename="/home/rob/cxgn/Ambikon/doc/art/ambikon_logo.png"
       inkscape:export-xdpi="600.25751"
       inkscape:export-ydpi="600.25751" />
  </g>
</svg>
